<?xml version="1.0" encoding="UTF-8"?>
<svg xmlns="http://www.w3.org/2000/svg" xmlns:xlink="http://www.w3.org/1999/xlink" version="1.1" id="Layer_1" x="0px" y="0px" viewBox="0 0 322 361.6" style="enable-background:new 0 0 322 361.6;" xml:space="preserve">
<style type="text/css">
	.st0{fill:#85576D;}
	.st1{fill:#FFFFFF;}
</style>
<path class="st0" d="M272.3,301.8c-4.9,6.8-10.7,12.8-16.9,18.6c-2.9,2.8-6,5.5-9,8.2c-0.6,0.4-1.1,0.8-1.7,1.2  c-9.2,6.1-21.1,10.1-34.9,10.1c-38.7,0-72.5-27.2-72.5-73.2V146.8c0-21-6.9-35.5-24.9-35.5c-10.8,0-23,6.6-34.1,15.1v103.4  c0,9.8,2.3,13.5,6.9,16.4c6.2,3.9,9.8,2.9,13.8,5.6c2.3,1.6,2.3,4.9,1.6,5.9c-1.3,1.6-21-1.6-47.6-1.6S5,259.4,3.7,257.8  c-0.7-1-0.3-4.3,1.6-5.9c4.3-2.9,8.5-1.6,14.8-5.6c4.6-2.9,6.9-6.6,6.9-16.4V62.1c0-7.9-2.6-12.1-6.6-15.1  c-5.3-3.6-8.9-3.3-12.5-5.9c-2-1.3-2.3-4.3-1.6-5.9C38.2,35.2,59.2,23.7,71,5h7.2v111.6c14.1-10.8,37.1-26.3,58.1-26.3  c35.1,0,52.2,23.3,52.2,63V289c0,31.5,15.4,41,31.5,41c6.5,0,14-2.9,18.9-6.5c-12.9-15.5-20.2-36.2-15.1-55.5  c4.9-18.6,19.9-32.7,34.2-45.6c5.2-0.4,11.8,7.7,15,11.8c8.1,10.7,11.1,21.2,11.5,34.6C284.8,281.9,280,291.2,272.3,301.8  L272.3,301.8z"></path>
<path class="st1" d="M255.5,320.4c-2.5,3-5.6,5.7-9,8.2C249.5,325.9,252.5,323.2,255.5,320.4z"></path>
<path class="st1" d="M246.5,328.6c-0.5,0.5-1,0.9-1.5,1.4c-0.1-0.1-0.1-0.1-0.2-0.2C245.3,329.4,245.9,329,246.5,328.6L246.5,328.6z  "></path>
<path class="st0" d="M319.5,330.2c-9.8-7.1-20.3-14.4-32.3-15c-14.3-0.7-27.6,8.8-35.1,20.9c6.6,4.9,13.3,9.8,20.7,13.1  s13.7,5,21.7,3.1c8.1-2,14.2-5.2,19.6-11.5C316.3,338.4,320.4,333.3,319.5,330.2L319.5,330.2z"></path>
</svg>
